<svg width="27" height="28" viewBox="0 0 27 28" fill="none" xmlns="http://www.w3.org/2000/svg">
<path d="M13.5 0.875C6.25195 0.875 0.375 6.75195 0.375 14C0.375 21.248 6.25195 27.125 13.5 27.125C20.748 27.125 26.625 21.248 26.625 14C26.625 6.75195 20.748 0.875 13.5 0.875ZM20.6396 18.1367L13.5 22.2617L6.36035 18.1367V9.89258L9.58301 8.0293L9.57129 8.02344H9.57715L13.5 5.76758L17.4258 8.02344H17.4199L17.4111 8.0293L20.6367 9.89258V18.1367H20.6396ZM7.52051 14.7236L10.0869 16.1855V18.9512L12.9199 20.5889V14.375L7.52051 11.2578V14.7236ZM13.4941 10.2764L10.7461 8.69727L8.07715 10.2383L13.5029 13.373L18.9287 10.2412L16.251 8.69434L13.4941 10.2764ZM14.0801 20.5889L16.9307 18.9424V16.1855L19.4795 14.7354V11.2607L14.0801 14.3809V20.5889Z" fill="#764ABD"/>
</svg>
